<?xml version="1.0" standalone="no"?><!DOCTYPE svg PUBLIC "-//W3C//DTD SVG 1.1//EN" "http://www.w3.org/Graphics/SVG/1.1/DTD/svg11.dtd"><svg t="1554793893507" class="icon" style="" viewBox="0 0 1024 1024" version="1.1" xmlns="http://www.w3.org/2000/svg" p-id="2113" xmlns:xlink="http://www.w3.org/1999/xlink" width="200" height="200"><defs><style type="text/css"></style></defs><path d="M188.373333 128H384c23.573333 0 42.666667-19.093333 42.666667-42.666667s-19.093333-42.666667-42.666667-42.666666H85.333333C61.76 42.666667 42.666667 61.76 42.666667 85.333333v298.666667c0 23.573333 19.093333 42.666667 42.666666 42.666667s42.666667-19.093333 42.666667-42.666667V188.373333L396.170667 456.533333a42.730667 42.730667 0 0 0 60.362666 0 42.741333 42.741333 0 0 0 0-60.362666L188.373333 128zM938.666667 597.002667c-23.573333 0-42.666667 19.093333-42.666667 42.666666v195.626667l-268.309333-268.16c-16.746667-16.64-43.893333-16.64-60.544 0s-16.650667 43.893333 0 60.533333L835.317333 896h-195.626666c-23.584 0-42.666667 19.093333-42.666667 42.666667s19.082667 42.666667 42.666667 42.666666h298.666666C961.92 981.333333 981.333333 961.92 981.333333 938.336v-298.666667c0-23.573333-19.093333-42.666667-42.666666-42.666666z" p-id="2114"></path></svg>