<?xml version="1.0" standalone="no"?><!DOCTYPE svg PUBLIC "-//W3C//DTD SVG 1.1//EN" "http://www.w3.org/Graphics/SVG/1.1/DTD/svg11.dtd"><svg t="1554793902040" class="icon" style="" viewBox="0 0 1024 1024" version="1.1" xmlns="http://www.w3.org/2000/svg" p-id="2229" xmlns:xlink="http://www.w3.org/1999/xlink" width="200" height="200"><defs><style type="text/css"></style></defs><path d="M1024 170.666667v256a42.666667 42.666667 0 0 1-42.666667 42.666666H725.333333a42.666667 42.666667 0 0 1 0-85.333333h143.872c-57.418667-55.968-102.752-100.266667-115.562666-113.066667l-0.277334-0.288A340.202667 340.202667 0 0 0 512 170.666667a340.213333 340.213333 0 0 0-249.792 108.693333 338.346667 338.346667 0 0 0-64.469333 99.157333c-2.378667 6.688-5.344 13.162667-7.712 19.872a42.666667 42.666667 0 1 1-80.533334-28.213333 422.304 422.304 0 0 1 40.725334-84.533333 427.882667 427.882667 0 0 1 60.064-75.349334 424.16 424.16 0 0 1 141.162666-93.717333 424.576 424.576 0 0 1 79.072-23.434667 429.333333 429.333333 0 0 1 162.933334 0 425.952 425.952 0 0 1 79.072 23.434667 423.893333 423.893333 0 0 1 141.162666 93.717333l0.629334 0.629334c13.674667 13.632 62.986667 61.802667 124.341333 121.6V170.666667A42.666667 42.666667 0 0 1 1024 170.666667zM42.666667 896a42.666667 42.666667 0 0 0 42.666666-42.666667V691.466667c61.354667 59.797333 110.666667 107.968 124.341334 121.589333l0.629333 0.64A424.16 424.16 0 0 0 351.466667 907.413333a425.386667 425.386667 0 0 0 79.072 23.434667A428.277333 428.277333 0 0 0 672.533333 907.413333a424.053333 424.053333 0 0 0 141.162667-93.717333 427.402667 427.402667 0 0 0 60.064-75.349333 422.336 422.336 0 0 0 40.714667-84.533334 42.677333 42.677333 0 0 0-80.522667-28.213333c-2.368 6.709333-5.333333 13.173333-7.712 19.872-34.933333 82.442667-102.837333 149.205333-185.792 182.869333A340.010667 340.010667 0 0 1 512 853.333333a340.16 340.16 0 0 1-241.365333-99.978666l-0.288-0.288c-12.8-12.789333-58.144-57.098667-115.562667-113.066667H298.666667a42.666667 42.666667 0 0 0 0-85.333333H42.666667a42.666667 42.666667 0 0 0-42.666667 42.666666v256a42.666667 42.666667 0 0 0 42.666667 42.666667z" p-id="2230"></path></svg>